<?xml version="1.0" standalone="no"?><svg id="bef9e841-c693-4d2f-bb75-a10cc045c68f" data-name="Layer 1" xmlns="http://www.w3.org/2000/svg" viewBox="0 0 48 42.72052">
<path d="M29,13h7V35H29ZM21,35h6V20H21Zm-8,0h6V27H13Zm30.16506-3.448a.891.891,0,0,0-1.045.50432A19.55365,19.55365,0,0,1,4.798,25.563H8.14867L4.07431,18.7089,0,25.563H3.01778a21.33373,21.33373,0,0,0,40.73851,7.206.89387.89387,0,0,0-.59123-1.21694ZM4.83494,16.448a.891.891,0,0,0,1.045-.50432A19.55365,19.55365,0,0,1,43.202,22.43705H39.85133l4.07436,6.85405L48,22.43705H44.98222a21.33373,21.33373,0,0,0-40.73851-7.206A.89387.89387,0,0,0,4.83494,16.448Z" transform="translate(0 -2.63974)"/>
</svg>